<svg width="279" height="82" viewBox="0 0 279 82" fill="none" xmlns="http://www.w3.org/2000/svg">
<path d="M50.382 29.98H51.656L51.136 36.558H50.096C49.732 34.9633 49.0213 33.7067 47.964 32.788C46.924 31.8693 45.6587 31.41 44.168 31.41C43.1453 31.41 42.2353 31.618 41.438 32.034C40.6407 32.4327 39.9647 33.0133 39.41 33.776C38.8727 34.5213 38.4567 35.44 38.162 36.532C37.8847 37.6067 37.746 38.82 37.746 40.172C37.746 42.8587 38.292 44.93 39.384 46.386C40.4933 47.8247 42.1227 48.544 44.272 48.544C46.0053 48.544 47.4353 48.076 48.562 47.14C49.706 46.204 50.5207 44.8087 51.006 42.954H52.15V50H50.928L50.564 47.946C48.6573 49.4887 46.3433 50.26 43.622 50.26C42.0447 50.26 40.6147 50.026 39.332 49.558C38.0493 49.09 36.9573 48.4313 36.056 47.582C35.1547 46.7153 34.4527 45.6667 33.95 44.436C33.4647 43.2053 33.222 41.836 33.222 40.328C33.222 38.7507 33.482 37.312 34.002 36.012C34.522 34.712 35.25 33.594 36.186 32.658C37.1393 31.722 38.266 31.0027 39.566 30.5C40.8833 29.98 42.3393 29.72 43.934 29.72C44.9913 29.72 45.9793 29.8673 46.898 30.162C47.8167 30.4567 48.8133 30.9333 49.888 31.592L50.382 29.98ZM59.7483 45.736C59.7483 46.4467 59.7656 47.01 59.8003 47.426C59.8523 47.8247 59.9476 48.1367 60.0863 48.362C60.2423 48.5873 60.4676 48.7347 60.7623 48.804C61.0743 48.8733 61.4903 48.9253 62.0103 48.96V50H53.8203V48.96C54.3403 48.9253 54.7563 48.8733 55.0683 48.804C55.3803 48.7347 55.6143 48.596 55.7703 48.388C55.9263 48.18 56.0216 47.8853 56.0563 47.504C56.1083 47.1053 56.1343 46.5767 56.1343 45.918V35.232C56.1343 34.192 56.117 33.3773 56.0823 32.788C56.065 32.1813 56.0216 31.722 55.9523 31.41C55.9003 31.1847 55.8396 31.0113 55.7703 30.89C55.701 30.7513 55.5883 30.6473 55.4323 30.578C55.2936 30.4913 55.0943 30.4393 54.8343 30.422C54.5916 30.3873 54.2796 30.37 53.8983 30.37V29.408L59.6963 28.42V38.014H59.8003C60.3376 37.3033 60.9356 36.7833 61.5943 36.454C62.2703 36.1247 63.0763 35.96 64.0123 35.96C65.711 35.96 67.0283 36.48 67.9643 37.52C68.415 38.04 68.7703 38.6727 69.0303 39.418C69.2903 40.146 69.4203 40.9087 69.4203 41.706V45.736C69.4203 46.464 69.4376 47.036 69.4723 47.452C69.507 47.8507 69.5936 48.1627 69.7323 48.388C69.8883 48.596 70.1136 48.7347 70.4083 48.804C70.703 48.8733 71.1103 48.9253 71.6303 48.96V50H63.4923V48.96C64.0123 48.9427 64.4196 48.8993 64.7143 48.83C65.0263 48.7433 65.2603 48.596 65.4163 48.388C65.5896 48.18 65.6936 47.8853 65.7283 47.504C65.7803 47.1053 65.8063 46.5767 65.8063 45.918V42.72C65.8063 40.8827 65.607 39.5827 65.2083 38.82C64.8096 38.0573 64.125 37.676 63.1543 37.676C62.1143 37.676 61.291 38.0573 60.6843 38.82C60.3896 39.2187 60.1556 39.7127 59.9823 40.302C59.8263 40.8913 59.7483 41.55 59.7483 42.278V45.736ZM86.0048 47.582C84.4275 49.3673 82.4602 50.26 80.1028 50.26C79.0282 50.26 78.0488 50.0953 77.1648 49.766C76.2982 49.4193 75.5528 48.9427 74.9288 48.336C74.3048 47.712 73.8195 46.9753 73.4728 46.126C73.1262 45.2767 72.9528 44.332 72.9528 43.292C72.9528 42.2173 73.1348 41.238 73.4988 40.354C73.8628 39.4527 74.3742 38.6813 75.0328 38.04C75.7088 37.3813 76.4975 36.87 77.3988 36.506C78.3175 36.142 79.3228 35.96 80.4148 35.96C82.2522 35.96 83.6822 36.454 84.7048 37.442C85.7275 38.43 86.2388 39.8167 86.2388 41.602C86.2388 41.8793 86.1955 42.0527 86.1088 42.122C86.0222 42.174 85.7795 42.2 85.3808 42.2H77.0088C76.9395 42.356 76.9048 42.642 76.9048 43.058C76.9048 44.7567 77.2688 46.1 77.9968 47.088C78.7422 48.076 79.7475 48.57 81.0128 48.57C81.7408 48.57 82.4602 48.4053 83.1708 48.076C83.8988 47.7467 84.6008 47.2787 85.2768 46.672L86.0048 47.582ZM80.9608 40.744C81.6542 40.744 82.0962 40.7093 82.2868 40.64C82.4948 40.5533 82.5988 40.3627 82.5988 40.068C82.5988 39.3053 82.3822 38.6813 81.9488 38.196C81.5155 37.7107 80.9695 37.468 80.3108 37.468C79.5655 37.468 78.8982 37.78 78.3088 38.404C77.7368 39.0107 77.3642 39.7907 77.1908 40.744H80.9608ZM93.8818 45.71C93.8818 46.438 93.8992 47.01 93.9338 47.426C93.9685 47.842 94.0638 48.1627 94.2198 48.388C94.3758 48.596 94.6012 48.7347 94.8958 48.804C95.1905 48.8733 95.5978 48.9253 96.1178 48.96V50H87.9018V48.96C88.4218 48.9253 88.8378 48.8733 89.1498 48.804C89.4618 48.7347 89.6958 48.596 89.8518 48.388C90.0078 48.18 90.1118 47.8853 90.1638 47.504C90.2158 47.1053 90.2418 46.5767 90.2418 45.918V42.694C90.2418 41.706 90.2245 40.8827 90.1898 40.224C90.1725 39.5653 90.1292 39.1147 90.0598 38.872C90.0078 38.6467 89.9385 38.4733 89.8518 38.352C89.7825 38.2133 89.6612 38.1093 89.4878 38.04C89.3318 37.9533 89.1238 37.9013 88.8638 37.884C88.6038 37.8493 88.2658 37.832 87.8498 37.832V36.948L92.8678 35.96L93.1798 38.222H93.3358C94.0638 37.4073 94.7918 36.8267 95.5198 36.48C96.2652 36.1333 97.1232 35.96 98.0938 35.96C99.2378 35.96 100.182 36.1593 100.928 36.558C101.673 36.9567 102.236 37.5287 102.618 38.274H102.722C103.346 37.546 104.091 36.9827 104.958 36.584C105.824 36.168 106.752 35.96 107.74 35.96C108.78 35.96 109.681 36.09 110.444 36.35C111.224 36.61 111.83 36.9827 112.264 37.468C112.61 37.8667 112.862 38.3867 113.018 39.028C113.191 39.6693 113.278 40.562 113.278 41.706V45.71C113.278 46.4207 113.295 46.984 113.33 47.4C113.382 47.816 113.486 48.1367 113.642 48.362C113.798 48.5873 114.023 48.7347 114.318 48.804C114.612 48.8733 115.02 48.9253 115.54 48.96V50H107.324V48.96C107.844 48.9427 108.251 48.8993 108.546 48.83C108.858 48.7433 109.092 48.596 109.248 48.388C109.421 48.1627 109.525 47.8593 109.56 47.478C109.612 47.0967 109.638 46.5767 109.638 45.918V42.512C109.638 41.6107 109.586 40.848 109.482 40.224C109.378 39.6 109.213 39.0973 108.988 38.716C108.762 38.3347 108.459 38.066 108.078 37.91C107.714 37.7367 107.263 37.65 106.726 37.65C106.119 37.65 105.616 37.7973 105.218 38.092C104.836 38.3867 104.516 38.768 104.256 39.236C103.805 40.0507 103.58 41.0647 103.58 42.278V45.71C103.58 46.4207 103.597 46.984 103.632 47.4C103.666 47.816 103.762 48.1367 103.918 48.362C104.074 48.5873 104.299 48.7347 104.594 48.804C104.906 48.8733 105.33 48.9253 105.868 48.96V50H97.6258V48.96C98.1458 48.9253 98.5532 48.8733 98.8478 48.804C99.1598 48.7347 99.3938 48.596 99.5498 48.388C99.7232 48.18 99.8272 47.8853 99.8618 47.504C99.9138 47.1053 99.9398 46.5767 99.9398 45.918V42.512C99.9398 41.6107 99.8878 40.848 99.7838 40.224C99.6798 39.6 99.5065 39.0973 99.2638 38.716C99.0385 38.3347 98.7352 38.066 98.3538 37.91C97.9725 37.7367 97.4958 37.65 96.9238 37.65C96.3518 37.65 95.8752 37.7887 95.4938 38.066C95.1298 38.3433 94.8265 38.716 94.5838 39.184C94.3585 39.6 94.1852 40.0767 94.0638 40.614C93.9425 41.1513 93.8818 41.706 93.8818 42.278V45.71ZM117.657 43.682V41.264H126.107V43.682H117.657ZM145.72 35.544C145.72 37.416 144.992 38.846 143.536 39.834C142.08 40.8047 139.965 41.29 137.192 41.29H134.982V45.866C134.982 46.5247 135.025 47.062 135.112 47.478C135.198 47.8767 135.38 48.1887 135.658 48.414C135.935 48.6393 136.316 48.7867 136.802 48.856C137.287 48.9253 137.937 48.96 138.752 48.96V50H128.43V48.96C129.002 48.9427 129.47 48.8907 129.834 48.804C130.198 48.7173 130.475 48.57 130.666 48.362C130.856 48.154 130.986 47.8593 131.056 47.478C131.125 47.0967 131.16 46.6027 131.16 45.996V33.984C131.16 33.3773 131.125 32.892 131.056 32.528C131.004 32.1467 130.891 31.852 130.718 31.644C130.544 31.4187 130.293 31.2713 129.964 31.202C129.652 31.1153 129.236 31.0547 128.716 31.02V29.98H137.712C140.346 29.98 142.34 30.448 143.692 31.384C145.044 32.32 145.72 33.7067 145.72 35.544ZM134.982 39.73H136.672C138.353 39.73 139.584 39.392 140.364 38.716C141.144 38.04 141.534 36.974 141.534 35.518C141.534 34.218 141.204 33.2127 140.546 32.502C139.887 31.7913 138.856 31.436 137.452 31.436H135.45C135.138 31.436 134.982 31.5833 134.982 31.878V39.73ZM152.5 45.736C152.5 46.4467 152.518 47.01 152.552 47.426C152.604 47.8247 152.7 48.1367 152.838 48.362C152.994 48.5873 153.22 48.7347 153.514 48.804C153.826 48.8733 154.242 48.9253 154.762 48.96V50H146.572V48.96C147.092 48.9253 147.508 48.8733 147.82 48.804C148.132 48.7347 148.366 48.596 148.522 48.388C148.678 48.18 148.774 47.8853 148.808 47.504C148.86 47.1053 148.886 46.5767 148.886 45.918V35.232C148.886 34.192 148.869 33.3773 148.834 32.788C148.817 32.1813 148.774 31.722 148.704 31.41C148.652 31.1847 148.592 31.0113 148.522 30.89C148.453 30.7513 148.34 30.6473 148.184 30.578C148.046 30.4913 147.846 30.4393 147.586 30.422C147.344 30.3873 147.032 30.37 146.65 30.37V29.408L152.448 28.42V38.014H152.552C153.09 37.3033 153.688 36.7833 154.346 36.454C155.022 36.1247 155.828 35.96 156.764 35.96C158.463 35.96 159.78 36.48 160.716 37.52C161.167 38.04 161.522 38.6727 161.782 39.418C162.042 40.146 162.172 40.9087 162.172 41.706V45.736C162.172 46.464 162.19 47.036 162.224 47.452C162.259 47.8507 162.346 48.1627 162.484 48.388C162.64 48.596 162.866 48.7347 163.16 48.804C163.455 48.8733 163.862 48.9253 164.382 48.96V50H156.244V48.96C156.764 48.9427 157.172 48.8993 157.466 48.83C157.778 48.7433 158.012 48.596 158.168 48.388C158.342 48.18 158.446 47.8853 158.48 47.504C158.532 47.1053 158.558 46.5767 158.558 45.918V42.72C158.558 40.8827 158.359 39.5827 157.96 38.82C157.562 38.0573 156.877 37.676 155.906 37.676C154.866 37.676 154.043 38.0573 153.436 38.82C153.142 39.2187 152.908 39.7127 152.734 40.302C152.578 40.8913 152.5 41.55 152.5 42.278V45.736ZM171.493 54.082C171.303 54.4633 171.06 54.8187 170.765 55.148C170.488 55.4773 170.167 55.7547 169.803 55.98C169.457 56.2227 169.093 56.4133 168.711 56.552C168.33 56.6907 167.949 56.76 167.567 56.76C166.995 56.76 166.536 56.6213 166.189 56.344C165.843 56.0667 165.669 55.694 165.669 55.226C165.669 54.7927 165.817 54.4547 166.111 54.212C166.423 53.9693 166.917 53.822 167.593 53.77C169.136 53.6487 170.133 53.1633 170.583 52.314L171.285 50.962L166.683 39.574C166.475 39.0713 166.293 38.6727 166.137 38.378C165.999 38.0833 165.843 37.858 165.669 37.702C165.496 37.5287 165.297 37.416 165.071 37.364C164.846 37.312 164.569 37.2773 164.239 37.26V36.22H172.117V37.26C171.441 37.26 170.965 37.3293 170.687 37.468C170.427 37.5893 170.297 37.8233 170.297 38.17C170.297 38.3087 170.315 38.4733 170.349 38.664C170.401 38.8373 170.462 39.0193 170.531 39.21L173.183 46.802H173.287L175.523 41.732C175.749 41.1947 175.939 40.7527 176.095 40.406C176.251 40.042 176.364 39.7387 176.433 39.496C176.52 39.236 176.581 39.028 176.615 38.872C176.65 38.716 176.667 38.56 176.667 38.404C176.667 37.9533 176.537 37.65 176.277 37.494C176.035 37.338 175.532 37.26 174.769 37.26V36.22H181.035V37.26C180.689 37.26 180.394 37.312 180.151 37.416C179.909 37.5027 179.657 37.6933 179.397 37.988C179.155 38.2827 178.877 38.7247 178.565 39.314C178.271 39.886 177.898 40.6487 177.447 41.602L171.493 54.082ZM205.341 29.98H206.615L206.095 36.558H205.055C204.691 34.9633 203.98 33.7067 202.923 32.788C201.883 31.8693 200.618 31.41 199.127 31.41C198.104 31.41 197.194 31.618 196.397 32.034C195.6 32.4327 194.924 33.0133 194.369 33.776C193.832 34.5213 193.416 35.44 193.121 36.532C192.844 37.6067 192.705 38.82 192.705 40.172C192.705 42.8587 193.251 44.93 194.343 46.386C195.452 47.8247 197.082 48.544 199.231 48.544C200.964 48.544 202.394 48.076 203.521 47.14C204.665 46.204 205.48 44.8087 205.965 42.954H207.109V50H205.887L205.523 47.946C203.616 49.4887 201.302 50.26 198.581 50.26C197.004 50.26 195.574 50.026 194.291 49.558C193.008 49.09 191.916 48.4313 191.015 47.582C190.114 46.7153 189.412 45.6667 188.909 44.436C188.424 43.2053 188.181 41.836 188.181 40.328C188.181 38.7507 188.441 37.312 188.961 36.012C189.481 34.712 190.209 33.594 191.145 32.658C192.098 31.722 193.225 31.0027 194.525 30.5C195.842 29.98 197.298 29.72 198.893 29.72C199.95 29.72 200.938 29.8673 201.857 30.162C202.776 30.4567 203.772 30.9333 204.847 31.592L205.341 29.98ZM217.307 42.59C215.851 43.2487 214.751 43.864 214.005 44.436C213.277 44.9907 212.913 45.5713 212.913 46.178C212.913 46.6807 213.052 47.0793 213.329 47.374C213.607 47.6687 213.953 47.816 214.369 47.816C214.785 47.816 215.175 47.7467 215.539 47.608C215.903 47.452 216.215 47.2527 216.475 47.01C216.735 46.7673 216.935 46.4813 217.073 46.152C217.229 45.8053 217.307 45.4413 217.307 45.06V42.59ZM217.307 41.212V40.12C217.307 39.1147 217.125 38.3867 216.761 37.936C216.415 37.468 215.869 37.234 215.123 37.234C214.621 37.234 214.239 37.3727 213.979 37.65C213.719 37.91 213.477 38.352 213.251 38.976C213.095 39.4093 212.87 39.7473 212.575 39.99C212.298 40.2327 211.908 40.354 211.405 40.354C210.92 40.354 210.547 40.2067 210.287 39.912C210.027 39.6173 209.897 39.2013 209.897 38.664C209.897 37.832 210.348 37.1733 211.249 36.688C212.168 36.2027 213.546 35.96 215.383 35.96C217.325 35.96 218.711 36.3153 219.543 37.026C220.375 37.7193 220.791 38.8893 220.791 40.536V46.23C220.791 47.7033 221.086 48.44 221.675 48.44C222.005 48.44 222.308 48.3273 222.585 48.102L222.975 48.856C222.733 49.2893 222.351 49.636 221.831 49.896C221.329 50.1387 220.757 50.26 220.115 50.26C219.318 50.26 218.711 50.0173 218.295 49.532C217.879 49.0467 217.671 48.362 217.671 47.478H217.541C217.039 48.3793 216.389 49.064 215.591 49.532C214.794 50 213.884 50.234 212.861 50.234C211.769 50.234 210.894 49.9307 210.235 49.324C209.577 48.7 209.247 47.894 209.247 46.906C209.247 46.1433 209.585 45.4327 210.261 44.774C210.937 44.098 212.064 43.4393 213.641 42.798L217.307 41.212ZM230.001 45.97C230.001 46.646 230.027 47.1833 230.079 47.582C230.148 47.9633 230.278 48.258 230.469 48.466C230.66 48.674 230.937 48.8127 231.301 48.882C231.665 48.934 232.15 48.96 232.757 48.96V50H224.073V48.96C224.593 48.9253 225.009 48.8733 225.321 48.804C225.633 48.7347 225.867 48.596 226.023 48.388C226.179 48.18 226.274 47.8853 226.309 47.504C226.361 47.1053 226.387 46.5767 226.387 45.918V42.746C226.387 41.6713 226.361 40.8133 226.309 40.172C226.257 39.5307 226.144 39.0367 225.971 38.69C225.798 38.3433 225.546 38.118 225.217 38.014C224.905 37.8927 224.489 37.832 223.969 37.832V36.922L229.169 35.96L229.585 38.95H229.689C230.157 38.0313 230.772 37.3033 231.535 36.766C232.298 36.2287 233.104 35.96 233.953 35.96C234.612 35.96 235.149 36.1247 235.565 36.454C235.981 36.7833 236.189 37.1993 236.189 37.702C236.189 38.2567 236.024 38.7247 235.695 39.106C235.383 39.4873 234.95 39.678 234.395 39.678C234.135 39.678 233.901 39.626 233.693 39.522C233.485 39.418 233.294 39.3053 233.121 39.184C232.965 39.0453 232.8 38.924 232.627 38.82C232.471 38.6987 232.306 38.638 232.133 38.638C231.804 38.638 231.492 38.8547 231.197 39.288C230.902 39.7213 230.66 40.302 230.469 41.03C230.33 41.55 230.218 42.1393 230.131 42.798C230.044 43.4393 230.001 44.0807 230.001 44.722V45.97ZM250.13 47.582C248.553 49.3673 246.585 50.26 244.228 50.26C243.153 50.26 242.174 50.0953 241.29 49.766C240.423 49.4193 239.678 48.9427 239.054 48.336C238.43 47.712 237.945 46.9753 237.598 46.126C237.251 45.2767 237.078 44.332 237.078 43.292C237.078 42.2173 237.26 41.238 237.624 40.354C237.988 39.4527 238.499 38.6813 239.158 38.04C239.834 37.3813 240.623 36.87 241.524 36.506C242.443 36.142 243.448 35.96 244.54 35.96C246.377 35.96 247.807 36.454 248.83 37.442C249.853 38.43 250.364 39.8167 250.364 41.602C250.364 41.8793 250.321 42.0527 250.234 42.122C250.147 42.174 249.905 42.2 249.506 42.2H241.134C241.065 42.356 241.03 42.642 241.03 43.058C241.03 44.7567 241.394 46.1 242.122 47.088C242.867 48.076 243.873 48.57 245.138 48.57C245.866 48.57 246.585 48.4053 247.296 48.076C248.024 47.7467 248.726 47.2787 249.402 46.672L250.13 47.582ZM245.086 40.744C245.779 40.744 246.221 40.7093 246.412 40.64C246.62 40.5533 246.724 40.3627 246.724 40.068C246.724 39.3053 246.507 38.6813 246.074 38.196C245.641 37.7107 245.095 37.468 244.436 37.468C243.691 37.468 243.023 37.78 242.434 38.404C241.862 39.0107 241.489 39.7907 241.316 40.744H245.086Z" fill="black"/>
<path d="M279 3H35C23.7989 3 18.1984 3 13.9202 5.17987C10.1569 7.09734 7.09734 10.1569 5.17987 13.9202C3 18.1984 3 23.7989 3 35V47C3 58.2011 3 63.8016 5.17987 68.0798C7.09734 71.8431 10.1569 74.9027 13.9202 76.8201C18.1984 79 23.7989 79 35 79H279" stroke="black" stroke-width="5"/>
<path d="M276.5 46L276.5 81" stroke="black" stroke-width="5"/>
</svg>
